<svg width="130" height="131" viewBox="0 0 130 131" fill="none" xmlns="http://www.w3.org/2000/svg">
<g clip-path="url(#clip0_888_12842)">
<path d="M85.8831 43.8333C85.8831 38.087 83.6004 32.576 79.5371 28.5127C75.4738 24.4494 69.9628 22.1667 64.2165 22.1667C58.4701 22.1667 52.9591 24.4494 48.8958 28.5127C44.8325 32.576 42.5498 38.087 42.5498 43.8333H85.8831ZM64.2165 87.1666C68.5017 87.1666 72.6907 85.8959 76.2538 83.5152C79.8169 81.1344 82.5939 77.7505 84.2338 73.7915C85.8737 69.8324 86.3028 65.4759 85.4668 61.273C84.6308 57.0701 82.5672 53.2095 79.5371 50.1793C76.507 47.1492 72.6463 45.0857 68.4434 44.2496C64.2405 43.4136 59.8841 43.8427 55.925 45.4826C51.9659 47.1225 48.5821 49.8996 46.2013 53.4626C43.8205 57.0257 42.5498 61.2147 42.5498 65.5C42.5498 71.2463 44.8325 76.7573 48.8958 80.8206C52.9591 84.8839 58.4701 87.1666 64.2165 87.1666ZM42.5498 87.1666C42.5498 92.913 44.8325 98.424 48.8958 102.487C52.9591 106.551 58.4701 108.833 64.2165 108.833C69.9628 108.833 75.4738 106.551 79.5371 102.487C83.6004 98.424 85.8831 92.913 85.8831 87.1666H42.5498ZM85.8831 43.8333V87.1666C91.6295 87.1666 97.1405 84.8839 101.204 80.8206C105.267 76.7573 107.55 71.2463 107.55 65.5C107.55 59.7536 105.267 54.2426 101.204 50.1793C97.1405 46.1161 91.6295 43.8333 85.8831 43.8333ZM85.8831 108.833C88.7333 108.841 91.557 108.286 94.1925 107.201C96.8279 106.115 99.2233 104.521 101.241 102.508C103.259 100.495 104.861 98.1041 105.953 95.4716C107.046 92.839 107.608 90.0168 107.608 87.1666H85.8831V108.833ZM107.608 43.8333C107.612 40.9869 107.054 38.1678 105.966 35.5373C104.879 32.9069 103.283 30.5168 101.27 28.5041C99.2578 26.4914 96.8677 24.8956 94.2373 23.8081C91.6068 22.7206 88.7877 22.1628 85.9413 22.1667V43.8333H107.608ZM21.6684 87.1666H20.8831C20.8908 92.9106 23.176 98.4172 27.2377 102.479C31.2993 106.54 36.8058 108.826 42.5498 108.833V87.1666H21.6684ZM107.608 43.8333V87.1666C113.354 87.1666 118.865 84.8839 122.929 80.8206C126.992 76.7573 129.275 71.2463 129.275 65.5C129.275 59.7536 126.992 54.2426 122.929 50.1793C118.865 46.1161 113.354 43.8333 107.608 43.8333ZM42.5498 108.833C42.5498 114.58 44.8325 120.091 48.8958 124.154C52.9591 128.217 58.4701 130.5 64.2165 130.5C69.9628 130.5 75.4738 128.217 79.5371 124.154C83.6004 120.091 85.8831 114.58 85.8831 108.833H42.5498ZM85.8831 22.1667C85.8831 16.4203 83.6004 10.9093 79.5371 6.84602C75.4738 2.78273 69.9628 0.5 64.2165 0.5C58.4701 0.5 52.9591 2.78273 48.8958 6.84602C44.8325 10.9093 42.5498 16.4203 42.5498 22.1667H85.8831ZM42.5498 87.1666V43.8333C37.7953 43.835 33.1738 45.4026 29.3995 48.2938C25.6251 51.185 22.9081 55.2389 21.6684 59.8288V43.8333C15.922 43.8333 10.411 46.1161 6.34773 50.1793C2.28444 54.2426 0.00170898 59.7536 0.00170898 65.5C0.00170898 71.2463 2.28444 76.7573 6.34773 80.8206C10.411 84.8839 15.922 87.1666 21.6684 87.1666V71.1711C22.9081 75.7611 25.6251 79.815 29.3995 82.7062C33.1738 85.5974 37.7953 87.165 42.5498 87.1666ZM42.5498 22.1667C39.7045 22.1667 36.887 22.7271 34.2583 23.8159C31.6296 24.9048 29.2411 26.5007 27.2292 28.5127C23.1659 32.576 20.8831 38.087 20.8831 43.8333H42.5498V22.1667Z" fill="#001ECB"/>
</g>
<defs>
<clipPath id="clip0_888_12842">
<rect width="129.215" height="130" fill="white" transform="translate(0 0.5)"/>
</clipPath>
</defs>
</svg>
