<svg width="122" height="175" viewBox="0 0 122 175" fill="none" xmlns="http://www.w3.org/2000/svg">
<g clip-path="url(#clip0_888_12846)">
<path d="M0.820068 60.8433C0.820068 27.5166 27.8367 0.5 61.1634 0.5V0.5C94.4901 0.5 121.507 27.5166 121.507 60.8434V253.113H0.820068V60.8433Z" fill="#001ECB"/>
<path fill-rule="evenodd" clip-rule="evenodd" d="M112 101.216C112 104.205 109.042 106.634 105.37 106.681V106.682C105.37 111.136 101.914 114.747 91.9995 114.747C85.5638 114.747 81.8493 113.225 80.0351 110.939C78.8512 111.085 77.5384 111.163 76.0872 111.163C68.7853 111.163 64.9865 109.204 63.4915 106.392C58.5498 105.628 54.9817 103.439 54.9817 100.857C54.9817 97.6403 60.5226 95.0325 67.3577 95.0325C68.2724 95.0325 69.164 95.0792 70.0222 95.1678C69.8687 94.6048 69.7879 94.0198 69.7879 93.4194C69.7879 88.9651 74.2404 85.3542 79.7329 85.3542C84.1431 85.3542 87.8828 87.6823 89.1854 90.9058C90.1099 90.6754 91.0919 90.5515 92.1095 90.5515C96.725 90.5515 100.606 93.1014 101.728 96.5588C102.755 96.0454 103.965 95.7493 105.26 95.7493C108.982 95.7493 112 98.1967 112 101.216Z" fill="#F4F1EA"/>
<path d="M22.1435 37.8707C22.2663 36.351 24.4919 36.351 24.6148 37.8707L25.4189 47.8146C25.5128 48.9763 27.0125 49.3781 27.6747 48.419L33.343 40.2094C34.2093 38.9548 36.1367 40.0676 35.4832 41.4451L31.2076 50.4588C30.7081 51.5118 31.806 52.6096 32.859 52.1101L41.8727 47.8346C43.2503 47.1811 44.363 49.1085 43.1084 49.9748L34.8988 55.6431C33.9397 56.3053 34.3415 57.805 35.5032 57.8989L45.4471 58.703C46.9668 58.8259 46.9668 61.0514 45.4471 61.1743L35.5032 61.9784C34.3415 62.0723 33.9397 63.572 34.8988 64.2342L43.1084 69.9025C44.363 70.7688 43.2503 72.6961 41.8727 72.0427L32.859 67.7671C31.806 67.2676 30.7081 68.3655 31.2076 69.4185L35.4832 78.4322C36.1367 79.8097 34.2093 80.9225 33.343 79.6679L27.6747 71.4583C27.0125 70.4991 25.5128 70.901 25.4189 72.0627L24.6148 82.0065C24.4919 83.5262 22.2663 83.5262 22.1435 82.0065L21.3394 72.0627C21.2454 70.901 19.7458 70.4991 19.0836 71.4583L13.4153 79.6679C12.549 80.9225 10.6216 79.8097 11.275 78.4322L15.5506 69.4185C16.0501 68.3655 14.9523 67.2676 13.8992 67.7671L4.88554 72.0427C3.50799 72.6961 2.39521 70.7688 3.64987 69.9025L11.8595 64.2342C12.8186 63.572 12.4168 62.0723 11.255 61.9784L1.31117 61.1743C-0.20854 61.0514 -0.20854 58.8259 1.31117 58.703L11.255 57.8989C12.4168 57.805 12.8186 56.3053 11.8595 55.6431L3.64987 49.9748C2.39521 49.1085 3.50798 47.1811 4.88553 47.8346L13.8992 52.1101C14.9523 52.6096 16.0501 51.5118 15.5506 50.4588L11.275 41.4451C10.6216 40.0675 12.549 38.9548 13.4153 40.2094L19.0836 48.419C19.7458 49.3781 21.2454 48.9763 21.3394 47.8146L22.1435 37.8707Z" fill="#F4F1EA"/>
<path fill-rule="evenodd" clip-rule="evenodd" d="M0.819656 98.3923H28.2333V118.945H59.3239V139.498V139.498V160.051L28.2333 160.051H0.819656V139.498V139.498V118.945V118.945V98.3923ZM90.416 139.498H59.325V160.051H90.416V139.498ZM28.2333 160.052H59.3239V175.963H59.325V160.052H90.4153V160.052H121.506V175.963V180.605V253.092H0.819534V175.963H0.819656V160.052H28.2329H28.2333Z" fill="#F4F1EA"/>
<path d="M0.820068 126.511H14.9671V148.439H0.820068V126.511Z" fill="#001ECB"/>
<path d="M19.9182 126.511V126.511C24.9839 126.511 29.156 130.491 29.3949 135.551L29.7483 143.036L30.5285 148.439H19.9182V126.511Z" fill="#001ECB"/>
<path d="M0.820068 153.39H14.9671V175.318H0.820068V153.39Z" fill="#001ECB"/>
<path d="M19.9182 153.39H31.1179L31.3676 161.946C31.4144 163.549 31.5767 165.147 31.8533 166.726L33.3579 175.318H19.9182V153.39Z" fill="#001ECB"/>
</g>
<defs>
<clipPath id="clip0_888_12846">
<rect width="121" height="175" fill="white" transform="translate(0.214844)"/>
</clipPath>
</defs>
</svg>
