<svg width="92" height="143" viewBox="0 0 92 143" fill="none" xmlns="http://www.w3.org/2000/svg">
<g clip-path="url(#clip0_888_12883)">
<path d="M45.5419 9.80024C45.5419 9.80024 45.7377 9.80024 45.7622 9.80024C45.9688 8.69203 46.5121 7.67445 47.3179 6.88613C48.1237 6.09781 49.153 5.57707 50.2655 5.39486V5.1746C49.1149 4.97646 48.0577 4.41619 47.2477 3.57538C46.4377 2.73458 45.9173 1.65715 45.7622 0.5C45.7622 0.5 45.5909 0.5 45.5419 0.5C45.3586 1.6241 44.8282 2.66268 44.0251 3.47023C43.2219 4.27778 42.1862 4.81383 41.0631 5.00328V5.22354C42.1966 5.4173 43.24 5.96413 44.0443 6.78601C44.8486 7.60789 45.3727 8.66281 45.5419 9.80024ZM91.1133 88.1181C90.9525 86.7312 90.4413 85.408 89.6277 84.2733C88.8142 83.1386 87.7251 82.2298 86.4632 81.6324C87.7279 81.0388 88.8194 80.131 89.6335 78.9955C90.4476 77.8601 90.957 76.535 91.1133 75.1467C91.1133 68.7344 79.7327 64.378 65.3907 62.3221C61.3035 56.742 58.0484 52.2877 55.3562 48.9836C55.2949 48.9056 55.2553 48.8128 55.2415 48.7146C55.2276 48.6164 55.2399 48.5163 55.2772 48.4244C55.3144 48.3325 55.3753 48.2521 55.4537 48.1912C55.532 48.1304 55.625 48.0914 55.7233 48.0781C60.7895 47.4662 67.471 46.3159 76.2329 45.0433C76.3822 45.0433 76.5253 44.984 76.6309 44.8784C76.7365 44.7728 76.7958 44.6296 76.7958 44.4804C76.7958 44.3311 76.7365 44.1879 76.6309 44.0823C76.5253 43.9768 76.3822 43.9174 76.2329 43.9174C68.4255 42.7672 62.258 41.7392 57.412 41.0784C57.3161 41.066 57.2253 41.028 57.1491 40.9684C57.073 40.9088 57.0143 40.8297 56.9792 40.7396C56.9442 40.6494 56.934 40.5515 56.9499 40.4561C56.9658 40.3607 57.007 40.2713 57.0694 40.1973C60.7895 35.3025 65.4641 28.7678 71.754 20.2997C71.8514 20.1914 71.903 20.0496 71.898 19.9041C71.8931 19.7586 71.8319 19.6206 71.7273 19.5192C71.6228 19.4179 71.483 19.3609 71.3374 19.3604C71.1918 19.3599 71.0516 19.4159 70.9464 19.5165C61.9153 26.2715 54.9891 31.1418 50.1187 34.9843C50.0431 35.0473 49.9517 35.0883 49.8544 35.103C49.7572 35.1177 49.6577 35.1055 49.5669 35.0677C49.4761 35.0298 49.3974 34.9678 49.3393 34.8884C49.2813 34.809 49.2461 34.7152 49.2376 34.6172C48.6257 29.5265 47.451 22.7961 46.1538 13.9364C46.1538 13.7871 46.0945 13.6439 45.9889 13.5384C45.8834 13.4328 45.7402 13.3735 45.5909 13.3735C45.4416 13.3735 45.2984 13.4328 45.1929 13.5384C45.0873 13.6439 45.028 13.7871 45.028 13.9364C43.7553 22.7716 42.5805 29.5265 41.9687 34.6172C41.9554 34.7155 41.9163 34.8085 41.8555 34.8868C41.7947 34.9652 41.7143 35.0261 41.6224 35.0633C41.5304 35.1006 41.4303 35.1129 41.3321 35.099C41.2339 35.0852 41.1411 35.0456 41.0631 34.9843C36.1682 31.1174 29.2909 26.2715 20.2599 19.5165C20.1546 19.4159 20.0145 19.3599 19.8689 19.3604C19.7232 19.3609 19.5835 19.4179 19.4789 19.5192C19.3744 19.6206 19.3132 19.7586 19.3082 19.9041C19.3032 20.0496 19.3549 20.1914 19.4522 20.2997C25.7911 28.7678 30.4657 35.4004 34.1369 40.1973C34.1998 40.2729 34.2409 40.3643 34.2556 40.4616C34.2703 40.5589 34.2581 40.6583 34.2202 40.7491C34.1824 40.8399 34.1204 40.9186 34.041 40.9767C33.9616 41.0347 33.8678 41.0699 33.7698 41.0784C28.8749 41.7392 22.7807 42.7672 14.9734 43.9174C14.8241 43.9174 14.6809 43.9768 14.5754 44.0823C14.4698 44.1879 14.4105 44.3311 14.4105 44.4804C14.4105 44.6296 14.4698 44.7728 14.5754 44.8784C14.6809 44.984 14.8241 45.0433 14.9734 45.0433C23.7108 46.2915 30.3923 47.4907 35.4585 48.0781C35.5568 48.0914 35.6498 48.1304 35.7281 48.1912C35.8065 48.2521 35.8674 48.3325 35.9046 48.4244C35.9419 48.5163 35.9542 48.6164 35.9403 48.7146C35.9264 48.8128 35.8869 48.9056 35.8256 48.9836C33.1089 52.2877 29.8783 56.7665 25.7911 62.3221C11.5715 64.4269 0.215332 68.7834 0.215332 75.1956C0.37146 76.5807 0.878147 77.9032 1.68752 79.038C2.4969 80.1729 3.58223 81.0826 4.841 81.6813C3.58501 82.2838 2.50208 83.1946 1.69322 84.3287C0.884361 85.4628 0.375922 86.7833 0.215332 88.167C0.369204 89.5528 0.875004 90.8763 1.68464 92.0115C2.49428 93.1467 3.58083 94.0559 4.841 94.6527C3.58501 95.2552 2.50208 96.166 1.69322 97.3001C0.884361 98.4342 0.375922 99.7547 0.215332 101.138C0.371981 102.526 0.878599 103.852 1.68767 104.991C2.49675 106.129 3.58177 107.044 4.841 107.649C3.58083 108.245 2.49428 109.155 1.68464 110.29C0.875004 111.425 0.369204 112.748 0.215332 114.134C0.215332 123.165 22.6828 128.109 44.2693 128.305C44.514 133.616 44.7832 138.315 45.028 141.962C45.0554 142.094 45.1276 142.213 45.2323 142.298C45.3371 142.383 45.4681 142.43 45.6031 142.43C45.7382 142.43 45.8692 142.383 45.9739 142.298C46.0787 142.213 46.1509 142.094 46.1783 141.962C46.423 138.315 46.6922 133.616 46.937 128.305C68.5724 128.109 90.9909 123.165 90.9909 114.134C90.837 112.745 90.3284 111.419 89.514 110.283C88.6997 109.148 87.6069 108.24 86.3408 107.649C87.606 107.049 88.6972 106.136 89.5109 104.997C90.3247 103.858 90.8341 102.53 90.9909 101.138C90.8302 99.7515 90.3189 98.4283 89.5054 97.2937C88.6918 96.159 87.6027 95.2501 86.3408 94.6527C87.6298 94.0775 88.7474 93.1774 89.584 92.0404C90.4206 90.9035 90.9476 89.5688 91.1133 88.167V88.1181ZM43.6819 112.862C32.387 113.031 21.1463 111.268 10.4456 107.649C21.0215 104.034 32.1394 102.263 43.3148 102.411C43.4371 105.935 43.5595 109.435 43.6819 112.862ZM43.2414 99.8902C32.0918 100.013 21.0023 98.242 10.4456 94.6527C20.8934 91.103 31.8649 89.3406 42.8987 89.4397C42.9966 92.8661 43.119 96.3659 43.2414 99.8902ZM42.8008 86.8943C31.7981 87.005 20.8568 85.2421 10.4456 81.6813C20.7513 78.1272 31.5814 76.3319 42.4826 76.3704C42.5805 79.7723 42.7029 83.2721 42.8008 86.8943ZM40.9408 56.5217C41.022 56.4591 41.1189 56.4199 41.2209 56.4084C41.3228 56.3968 41.426 56.4134 41.5192 56.4562C41.6124 56.4991 41.6922 56.5666 41.7498 56.6514C41.8075 56.7363 41.8409 56.8353 41.8463 56.9378C41.8463 58.0881 41.8463 59.3852 41.9932 61.0739C39.5457 61.0739 36.927 61.2697 34.4306 61.4411C36.927 59.63 39.0807 57.9902 40.9408 56.5217ZM2.66277 75.1956C2.66277 71.4511 10.7638 67.3883 23.8576 65.1612C22.487 67.0212 21.0675 68.9791 19.5012 71.0595C19.4038 71.1678 19.3522 71.3096 19.3572 71.4551C19.3622 71.6006 19.4233 71.7386 19.5279 71.8399C19.6324 71.9413 19.7722 71.9982 19.9178 71.9987C20.0634 71.9992 20.2036 71.9433 20.3088 71.8426C24.1268 69.0036 27.5288 66.4828 30.5881 64.2556C34.1858 63.864 37.9304 63.6193 42.0666 63.5214C42.0666 66.5562 42.2868 70.105 42.4092 74.0209C28.8993 74.339 15.4874 76.4683 7.38634 80.2863C4.35151 78.671 2.66277 76.9088 2.66277 75.1956ZM2.66277 88.167C2.66277 86.4783 4.35151 84.7161 7.38634 83.0764C13.6222 85.7409 20.2219 87.4568 26.9659 88.167C20.2232 88.8994 13.6256 90.623 7.38634 93.2821C4.35151 91.6424 2.66277 89.8802 2.66277 88.167ZM2.66277 101.138C2.66277 99.4497 4.35151 97.6875 7.38634 96.0477C13.6225 98.7116 20.222 100.427 26.9659 101.138C20.2227 101.868 13.6247 103.592 7.38634 106.254C4.35151 104.614 2.66277 102.852 2.66277 101.138ZM2.66277 114.134C2.66277 112.421 4.35151 110.659 7.38634 109.019C15.6342 113.082 29.8294 115.138 43.7798 115.309C43.9266 118.98 44.0735 122.504 44.2203 125.857C19.7949 125.613 2.66277 119.568 2.66277 114.134ZM49.4579 56.9378C49.4633 56.8353 49.4967 56.7363 49.5543 56.6514C49.612 56.5666 49.6917 56.4991 49.7849 56.4562C49.8782 56.4134 49.9814 56.3968 50.0833 56.4084C50.1853 56.4199 50.2821 56.4591 50.3634 56.5217C52.2235 57.9902 54.4017 59.6218 56.8981 61.4166C54.4506 61.2453 51.8563 61.0984 49.311 61.0495C49.36 59.4831 49.4089 58.0881 49.4579 56.9378ZM49.1642 63.5214C53.2514 63.5214 57.0694 63.864 60.6671 64.2556C63.7264 66.4828 67.1284 68.9791 70.9464 71.8426C71.0516 71.9433 71.1918 71.9992 71.3374 71.9987C71.483 71.9982 71.6228 71.9413 71.7273 71.8399C71.8319 71.7386 71.8931 71.6006 71.898 71.4551C71.903 71.3096 71.8514 71.1678 71.754 71.0595C70.1877 68.9791 68.7682 67.0212 67.3976 65.1612C80.4914 67.3883 88.6169 71.4511 88.6169 75.1956C88.6169 76.9088 86.9282 78.671 83.8933 80.2863C76.086 76.3704 62.4293 74.3146 48.8949 73.923C49.0173 70.105 49.1642 66.5807 49.1642 63.5214ZM48.8215 76.3704C59.7637 76.3191 70.6362 78.1146 80.9809 81.6813C70.5301 85.2526 59.5468 87.0156 48.5033 86.8943C48.6012 83.2721 48.7236 79.7723 48.8215 76.3704ZM48.4055 89.3418C59.4858 89.2614 70.4999 91.0571 80.9809 94.6527C70.4217 98.2658 59.32 100.037 48.1607 99.8902C48.1852 96.3659 48.3076 92.8661 48.4055 89.4397V89.3418ZM47.9894 102.313C59.2111 102.188 70.3708 103.992 80.9809 107.649C70.2747 111.28 59.0239 113.043 47.7202 112.862C47.7446 109.435 47.867 105.935 47.9894 102.411V102.313ZM88.6659 114.036C88.6659 119.47 71.6561 125.515 47.0594 125.76C47.2062 122.407 47.3531 118.882 47.4999 115.211C61.4014 115.138 75.6944 113.082 83.9423 109.019C86.9771 110.634 88.6659 112.421 88.6659 114.134V114.036ZM88.6659 101.041C88.6659 102.754 86.9771 104.516 83.9423 106.156C77.7029 103.497 71.1053 101.773 64.3628 101.041C71.106 100.326 77.7051 98.6105 83.9423 95.9498C86.9771 97.6875 88.6659 99.4497 88.6659 101.138V101.041ZM83.9423 93.1842C77.703 90.5251 71.1054 88.8015 64.3628 88.0691C71.1062 87.3556 77.7053 85.6398 83.9423 82.9785C86.9771 84.6182 88.6659 86.3804 88.6659 88.0691C88.6659 89.7578 86.9771 91.6424 83.9423 93.2821V93.1842Z" fill="#001ECB"/>
</g>
<defs>
<clipPath id="clip0_888_12883">
<rect width="90.898" height="142" fill="white" transform="translate(0.214844 0.5)"/>
</clipPath>
</defs>
</svg>
