<svg width="800" height="400" viewBox="0 0 800 400" xmlns="http://www.w3.org/2000/svg"><mask id="satori_om-id"><rect x="0" y="0" width="800" height="400" fill="#fff"/></mask><rect x="0" y="0" width="800" height="400" fill="#000"/><mask id="satori_om-id-0"><rect x="300" y="201" width="201" height="38" fill="#fff"/></mask><path fill="#00efa6" d="M300.8 207.7L303.8 207.7L310.7 227.3L311.0 227.3L317.9 207.7L320.8 207.7L312.3 231.0L309.4 231.0L300.8 207.7ZM326.8 231.0L324.1 231.0L324.1 213.5L326.8 213.5L326.8 231.0ZM325.5 210.6L325.5 210.6Q324.7 210.6 324.1 210.1Q323.5 209.5 323.5 208.8L323.5 208.8Q323.5 208.0 324.1 207.5Q324.7 207.0 325.5 207.0L325.5 207.0Q326.2 207.0 326.8 207.5Q327.4 208.0 327.4 208.8L327.4 208.8Q327.4 209.5 326.8 210.1Q326.2 210.6 325.5 210.6ZM334.4 231.0L331.7 231.0L331.7 213.5L334.3 213.5L334.3 216.1L334.5 216.1Q334.9 214.8 336.2 214.0Q337.4 213.2 339.0 213.2L339.0 213.2Q339.3 213.2 339.7 213.2Q340.2 213.2 340.4 213.3L340.4 213.3L340.4 216.0Q340.3 216.0 339.8 215.9Q339.3 215.8 338.8 215.8L338.8 215.8Q337.5 215.8 336.5 216.3Q335.5 216.9 334.9 217.8Q334.4 218.7 334.4 219.9L334.4 219.9L334.4 231.0ZM348.7 231.4L348.7 231.4Q347.1 231.4 345.7 230.7Q344.4 230.1 343.6 228.9Q342.8 227.7 342.8 226.0L342.8 226.0Q342.8 224.5 343.4 223.6Q344.0 222.6 344.9 222.1Q345.9 221.6 347.1 221.3Q348.3 221.0 349.5 220.9L349.5 220.9Q351.1 220.7 352.1 220.5Q353.1 220.4 353.6 220.2Q354.0 219.9 354.0 219.3L354.0 219.3L354.0 219.2Q354.0 217.5 353.1 216.6Q352.2 215.6 350.4 215.6L350.4 215.6Q348.4 215.6 347.4 216.5Q346.3 217.3 345.8 218.3L345.8 218.3L343.3 217.4Q344.0 215.8 345.1 214.9Q346.2 214.0 347.6 213.6Q349.0 213.3 350.3 213.3L350.3 213.3Q351.1 213.3 352.2 213.5Q353.3 213.7 354.3 214.3Q355.4 214.9 356.0 216.1Q356.7 217.4 356.7 219.5L356.7 219.5L356.7 231.0L354.0 231.0L354.0 228.6L353.9 228.6Q353.6 229.2 353 229.8Q352.4 230.5 351.3 230.9Q350.3 231.4 348.7 231.4ZM349.1 229.0L349.1 229.0Q350.7 229.0 351.8 228.3Q352.9 227.7 353.5 226.7Q354.0 225.7 354.0 224.6L354.0 224.6L354.0 222.2Q353.9 222.4 353.3 222.5Q352.7 222.7 352.0 222.8Q351.2 223.0 350.5 223.0Q349.8 223.1 349.4 223.2L349.4 223.2Q348.4 223.3 347.5 223.6Q346.6 223.9 346.0 224.5Q345.5 225.1 345.5 226.1L345.5 226.1Q345.5 227.5 346.5 228.2Q347.5 229.0 349.1 229.0ZM361.6 232.2L361.6 213.5L364.3 213.5L364.3 232.2Q364.3 233.8 363.8 235.0Q363.2 236.2 362.1 236.8Q361 237.5 359.3 237.5L359.3 237.5Q359.2 237.5 359.0 237.5Q358.9 237.5 358.8 237.5L358.8 237.5L358.8 235.0Q358.9 235.0 359.0 235.0Q359.1 235.0 359.3 235.0L359.3 235.0Q360.5 235.0 361.1 234.3Q361.6 233.6 361.6 232.2L361.6 232.2ZM363.0 210.6L363.0 210.6Q362.2 210.6 361.6 210.1Q361.0 209.5 361.0 208.8L361.0 208.8Q361.0 208.0 361.6 207.5Q362.2 207.0 363.0 207.0L363.0 207.0Q363.7 207.0 364.3 207.5Q364.9 208.0 364.9 208.8L364.9 208.8Q364.9 209.5 364.3 210.1Q363.7 210.6 363.0 210.6Z M387 231.0L378.6 231.0L378.6 207.7L386.7 207.7Q389.2 207.7 390.7 208.5Q392.3 209.3 393.1 210.8Q393.9 212.2 393.9 213.9L393.9 213.9Q393.9 215.4 393.3 216.3Q392.8 217.3 391.9 217.9Q391.1 218.5 390.1 218.7L390.1 218.7L390.1 219.0Q391.2 219.0 392.2 219.7Q393.3 220.4 394.0 221.7Q394.8 222.9 394.8 224.8L394.8 224.8Q394.8 226.5 394.0 227.9Q393.2 229.3 391.5 230.1Q389.8 231.0 387 231.0L387 231.0ZM381.4 220.4L381.4 228.5L387 228.5Q389.8 228.5 390.9 227.4Q392.1 226.3 392.1 224.8L392.1 224.8Q392.1 223.6 391.5 222.6Q390.9 221.6 389.8 221.0Q388.7 220.4 387.1 220.4L387.1 220.4L381.4 220.4ZM381.4 210.2L381.4 217.9L386.6 217.9Q387.9 217.9 388.9 217.4Q390.0 216.9 390.6 216.0Q391.2 215.1 391.2 213.9L391.2 213.9Q391.2 212.3 390.1 211.3Q389.0 210.2 386.7 210.2L386.7 210.2L381.4 210.2ZM401.7 220.5L401.7 220.5L401.7 231.0L399.0 231.0L399.0 207.7L401.7 207.7L401.7 216.2L402.0 216.2Q402.6 214.9 403.8 214.1Q405.0 213.3 407.1 213.3L407.1 213.3Q408.9 213.3 410.2 214.0Q411.6 214.7 412.3 216.2Q413.0 217.6 413.0 219.9L413.0 219.9L413.0 231.0L410.4 231.0L410.4 220.0Q410.4 218.0 409.3 216.8Q408.2 215.7 406.3 215.7L406.3 215.7Q405 215.7 404.0 216.2Q402.9 216.8 402.3 217.9Q401.7 218.9 401.7 220.5ZM423.1 231.4L423.1 231.4Q421.4 231.4 420.1 230.7Q418.7 230.1 417.9 228.9Q417.1 227.7 417.1 226.0L417.1 226.0Q417.1 224.5 417.7 223.6Q418.3 222.6 419.3 222.1Q420.3 221.6 421.5 221.3Q422.7 221.0 423.9 220.9L423.9 220.9Q425.5 220.7 426.5 220.5Q427.5 220.4 427.9 220.2Q428.4 219.9 428.4 219.3L428.4 219.3L428.4 219.2Q428.4 217.5 427.5 216.6Q426.6 215.6 424.7 215.6L424.7 215.6Q422.8 215.6 421.7 216.5Q420.6 217.3 420.2 218.3L420.2 218.3L417.6 217.4Q418.3 215.8 419.5 214.9Q420.6 214.0 422.0 213.6Q423.3 213.3 424.6 213.3L424.6 213.3Q425.5 213.3 426.6 213.5Q427.7 213.7 428.7 214.3Q429.7 214.9 430.4 216.1Q431.1 217.4 431.1 219.5L431.1 219.5L431.1 231.0L428.4 231.0L428.4 228.6L428.3 228.6Q428 229.2 427.4 229.8Q426.7 230.5 425.7 230.9Q424.6 231.4 423.1 231.4ZM423.5 229.0L423.5 229.0Q425.1 229.0 426.2 228.3Q427.3 227.7 427.8 226.7Q428.4 225.7 428.4 224.6L428.4 224.6L428.4 222.2Q428.2 222.4 427.7 222.5Q427.1 222.7 426.3 222.8Q425.6 223.0 424.9 223.0Q424.2 223.1 423.8 223.2L423.8 223.2Q422.7 223.3 421.8 223.6Q420.9 223.9 420.4 224.5Q419.8 225.1 419.8 226.1L419.8 226.1Q419.8 227.5 420.9 228.2Q421.9 229.0 423.5 229.0ZM438.7 231.0L436 231.0L436 213.5L438.6 213.5L438.6 216.1L438.8 216.1Q439.3 214.8 440.5 214.0Q441.8 213.2 443.3 213.2L443.3 213.2Q443.6 213.2 444.1 213.2Q444.5 213.2 444.7 213.3L444.7 213.3L444.7 216.0Q444.6 216.0 444.1 215.9Q443.6 215.8 443.1 215.8L443.1 215.8Q441.8 215.8 440.8 216.3Q439.8 216.9 439.3 217.8Q438.7 218.7 438.7 219.9L438.7 219.9L438.7 231.0ZM447.5 213.5L456.6 213.5L456.6 215.8L447.5 215.8L447.5 213.5ZM450.2 226.7L450.2 209.3L452.9 209.3L452.9 226.0Q452.9 227.1 453.2 227.7Q453.5 228.2 454.1 228.4Q454.6 228.6 455.2 228.6L455.2 228.6Q455.6 228.6 455.9 228.5Q456.2 228.5 456.4 228.5L456.4 228.5L456.9 230.9Q456.6 231.0 456.1 231.1Q455.7 231.2 454.9 231.2L454.9 231.2Q453.8 231.2 452.7 230.7Q451.6 230.2 450.9 229.2Q450.2 228.2 450.2 226.7L450.2 226.7ZM463.3 231.0L460.6 231.0L460.6 213.5L463.3 213.5L463.3 231.0ZM462 210.6L462 210.6Q461.2 210.6 460.7 210.1Q460.1 209.5 460.1 208.8L460.1 208.8Q460.1 208.0 460.7 207.5Q461.2 207.0 462 207.0L462 207.0Q462.8 207.0 463.3 207.5Q463.9 208.0 463.9 208.8L463.9 208.8Q463.9 209.5 463.3 210.1Q462.8 210.6 462 210.6ZM470.0 237.5L470.0 237.5Q469.3 237.5 468.7 237.4Q468.2 237.3 468 237.2L468 237.2L468.7 234.8Q469.7 235.1 470.4 235.0Q471.2 234.9 471.7 234.3Q472.3 233.7 472.8 232.4L472.8 232.4L473.3 231.0L466.9 213.5L469.8 213.5L474.6 227.4L474.8 227.4L479.6 213.5L482.5 213.5L475.1 233.5Q474.6 234.8 473.9 235.7Q473.1 236.6 472.1 237.1Q471.2 237.5 470.0 237.5ZM490.6 231.4L490.6 231.4Q489.0 231.4 487.6 230.7Q486.3 230.1 485.5 228.9Q484.7 227.7 484.7 226.0L484.7 226.0Q484.7 224.5 485.3 223.6Q485.9 222.6 486.9 222.1Q487.8 221.6 489.0 221.3Q490.2 221.0 491.5 220.9L491.5 220.9Q493.0 220.7 494.0 220.5Q495.0 220.4 495.5 220.2Q496.0 219.9 496.0 219.3L496.0 219.3L496.0 219.2Q496.0 217.5 495.0 216.6Q494.1 215.6 492.3 215.6L492.3 215.6Q490.4 215.6 489.3 216.5Q488.2 217.3 487.7 218.3L487.7 218.3L485.2 217.4Q485.9 215.8 487.0 214.9Q488.1 214.0 489.5 213.6Q490.9 213.3 492.2 213.3L492.2 213.3Q493.0 213.3 494.1 213.5Q495.2 213.7 496.2 214.3Q497.3 214.9 498.0 216.1Q498.6 217.4 498.6 219.5L498.6 219.5L498.6 231.0L496.0 231.0L496.0 228.6L495.8 228.6Q495.5 229.2 494.9 229.8Q494.3 230.5 493.2 230.9Q492.2 231.4 490.6 231.4ZM491.0 229.0L491.0 229.0Q492.6 229.0 493.7 228.3Q494.8 227.7 495.4 226.7Q496.0 225.7 496.0 224.6L496.0 224.6L496.0 222.2Q495.8 222.4 495.2 222.5Q494.6 222.7 493.9 222.8Q493.1 223.0 492.4 223.0Q491.7 223.1 491.3 223.2L491.3 223.2Q490.3 223.3 489.4 223.6Q488.5 223.9 487.9 224.5Q487.4 225.1 487.4 226.1L487.4 226.1Q487.4 227.5 488.4 228.2Q489.4 229.0 491.0 229.0Z "/></svg>